<?xml version="1.0" encoding="UTF-8" standalone="no"?>
<!-- Created with Inkscape (http://www.inkscape.org/) -->

<svg
   width="41.599998mm"
   height="27.5mm"
   viewBox="0 0 41.599999 27.5"
   version="1.1"
   id="svg5"
   inkscape:version="1.2.2 (b0a8486541, 2022-12-01)"
   sodipodi:docname="logo-go-jsonlp.svg"
   xmlns:inkscape="http://www.inkscape.org/namespaces/inkscape"
   xmlns:sodipodi="http://sodipodi.sourceforge.net/DTD/sodipodi-0.dtd"
   xmlns="http://www.w3.org/2000/svg"
   xmlns:svg="http://www.w3.org/2000/svg">
  <sodipodi:namedview
     id="namedview7"
     pagecolor="#ffffff"
     bordercolor="#999999"
     borderopacity="1"
     inkscape:showpageshadow="0"
     inkscape:pageopacity="0"
     inkscape:pagecheckerboard="0"
     inkscape:deskcolor="#d1d1d1"
     inkscape:document-units="mm"
     showgrid="false"
     inkscape:zoom="2.8284271"
     inkscape:cx="256.50299"
     inkscape:cy="220.61732"
     inkscape:window-width="3840"
     inkscape:window-height="2036"
     inkscape:window-x="-12"
     inkscape:window-y="-12"
     inkscape:window-maximized="1"
     inkscape:current-layer="layer1" />
  <defs
     id="defs2" />
  <g
     inkscape:label="Layer 1"
     inkscape:groupmode="layer"
     id="layer1"
     transform="translate(-3.584576,-5.94427)">
    <g
       id="g439"
       style="fill:#753030;fill-opacity:1"
       transform="translate(-27.648958,-104.57656)">
      <path
         d="m 34.912301,122.0482 c 0.9144,0.16933 1.566333,0.54187 1.9558,1.1176 0.4064,0.57573 0.6096,1.40547 0.6096,2.4892 v 2.8702 c 0,0.7112 0.1016,1.22767 0.3048,1.5494 0.2032,0.32173 0.575733,0.4826 1.1176,0.4826 h 2.3622 L 62.162,132.9956 H 38.620701 c -1.524,0 -2.582333,-0.3302 -3.175,-0.9906 -0.575733,-0.6604 -0.8636,-1.61713 -0.8636,-2.8702 v -3.7338 c 0,-0.7112 -0.110067,-1.2446 -0.3302,-1.6002 -0.220133,-0.37253 -0.592667,-0.5588 -1.1176,-0.5588 h -1.3716 v -2.4384 h 1.3716 c 0.524933,0 0.897467,-0.1778 1.1176,-0.5334 0.220133,-0.37253 0.3302,-0.90593 0.3302,-1.6002 v -3.7592 c 0,-1.25307 0.287867,-2.2098 0.8636,-2.8702 0.592667,-0.6604 1.651,-0.9906 3.175,-0.9906 h 2.6416 v 2.4384 h -2.3622 c -0.541867,0 -0.9144,0.16087 -1.1176,0.4826 -0.2032,0.3048 -0.3048,0.82127 -0.3048,1.5494 v 2.8702 c 0,1.08373 -0.2032,1.91347 -0.6096,2.4892 -0.389467,0.57573 -1.0414,0.9652 -1.9558,1.1684 z"
         style="font-weight:bold;font-size:25.4px;line-height:1.25;font-family:'Ubuntu Mono';-inkscape-font-specification:'Ubuntu Mono Bold';letter-spacing:0px;word-spacing:0px;fill:#753030;fill-opacity:1;stroke-width:0.264583"
         id="path273"
         sodipodi:nodetypes="ccssssccscsscsccscsscsccscsscc" />
      <path
         d="m 50.812699,122.80842 q 0,1.28429 -0.3048,2.42588 -0.2794,1.14159 -0.9652,1.99779 -0.6604,0.85619 -1.7272,1.36991 -1.0668,0.48518 -2.5908,0.48518 -1.6002,0 -2.667,-0.45664 -1.0668,-0.45663 -1.8034,-1.11305 l 1.1938,-2.79691 q 0.635,0.45664 1.397,0.88474 0.7874,0.4281 1.6002,0.4281 1.2192,0 1.9558,-0.7135 0.762,-0.74203 0.762,-2.71128 v -8.64757 h -5.2578 V 111.05 h 8.4074 z"
         style="font-weight:bold;font-size:25.4px;line-height:1.25;font-family:'Ubuntu Mono';-inkscape-font-specification:'Ubuntu Mono Bold';letter-spacing:0px;word-spacing:0px;fill:#753030;fill-opacity:1;stroke-width:0.28046"
         id="path275" />
      <path
         d="m 64.452499,111.05 v 2.91779 h -4.1402 v 14.78919 h -3.1496 v -14.78919 h -4.1402 V 111.05 Z"
         style="font-weight:bold;font-size:25.4px;line-height:1.25;font-family:'Ubuntu Mono';-inkscape-font-specification:'Ubuntu Mono Bold';letter-spacing:0px;word-spacing:0px;fill:#753030;fill-opacity:1;stroke-width:0.280784"
         id="path277" />
      <path
         d="M 72.271465,132.9956 H 65.210263 L 44.01,130.5572 h 25.264263 v -17.0688 h -4.064 V 111.05 h 7.061202 z"
         style="font-weight:bold;font-size:25.4px;line-height:1.25;font-family:'Ubuntu Mono';-inkscape-font-specification:'Ubuntu Mono Bold';letter-spacing:0px;word-spacing:0px;fill:#753030;fill-opacity:1;stroke-width:0.264583"
         id="path279"
         sodipodi:nodetypes="ccccccccc" />
    </g>
    <g
       id="g4694"
       transform="translate(0.52916663,0.52916663)">
      <g
         aria-label="Loose JSON+TOML Parser for Go"
         id="text2352"
         style="font-size:3.175px;line-height:1.25;font-family:'Courier New';-inkscape-font-specification:'Courier New';letter-spacing:0px;word-spacing:0px;fill:#753030;stroke-width:0.264583"
         transform="matrix(0.73349185,0,0,0.761346,3.7902821,2.894919)">
        <path
           d="m 6.5000143,38.353176 v -2.272729 h 0.3007568 v 2.004528 h 1.1193115 v 0.268201 z"
           style="font-family:Arial;-inkscape-font-specification:Arial"
           id="path2404" />
        <path
           d="m 8.1386739,37.529971 q 0,-0.457337 0.2542481,-0.677478 0.2123901,-0.182935 0.5177978,-0.182935 0.3395142,0 0.5550049,0.223242 0.2154907,0.221692 0.2154907,0.613916 0,0.31781 -0.096118,0.500745 -0.094568,0.181384 -0.2775025,0.282153 -0.1813842,0.100769 -0.396875,0.100769 -0.3457153,0 -0.5596557,-0.221692 -0.2123902,-0.221692 -0.2123903,-0.63872 z m 0.2868042,0 q 0,0.316259 0.1379761,0.474389 0.1379761,0.15658 0.3472656,0.15658 0.2077393,0 0.3457154,-0.15813 0.137976,-0.15813 0.137976,-0.482141 0,-0.305408 -0.1395263,-0.461987 -0.1379761,-0.15813 -0.3441651,-0.15813 -0.2092895,0 -0.3472656,0.156579 -0.1379761,0.15658 -0.1379761,0.47284 z"
           style="font-family:Arial;-inkscape-font-specification:Arial"
           id="path2406" />
        <path
           d="m 9.9044576,37.529971 q 0,-0.457337 0.2542484,-0.677478 0.21239,-0.182935 0.517798,-0.182935 0.339514,0 0.555004,0.223242 0.215491,0.221692 0.215491,0.613916 0,0.31781 -0.09612,0.500745 -0.09457,0.181384 -0.277503,0.282153 -0.181384,0.100769 -0.396874,0.100769 -0.345716,0 -0.559656,-0.221692 -0.2123904,-0.221692 -0.2123904,-0.63872 z m 0.2868044,0 q 0,0.316259 0.137976,0.474389 0.137976,0.15658 0.347266,0.15658 0.207739,0 0.345715,-0.15813 0.137976,-0.15813 0.137976,-0.482141 0,-0.305408 -0.139526,-0.461987 -0.137977,-0.15813 -0.344165,-0.15813 -0.20929,0 -0.347266,0.156579 -0.137976,0.15658 -0.137976,0.47284 z"
           style="font-family:Arial;-inkscape-font-specification:Arial"
           id="path2408" />
        <path
           d="m 11.66249,37.861733 0.275952,-0.04341 q 0.02325,0.165881 0.128674,0.254248 0.10697,0.08837 0.297656,0.08837 0.192237,0 0.285254,-0.07751 0.09302,-0.07906 0.09302,-0.184485 0,-0.09457 -0.08217,-0.148828 -0.05736,-0.03721 -0.285254,-0.09457 -0.306958,-0.07751 -0.42633,-0.133325 -0.117822,-0.05736 -0.179834,-0.156579 -0.06046,-0.10077 -0.06046,-0.221692 0,-0.110071 0.04961,-0.203089 0.05116,-0.09457 0.137976,-0.156579 0.06511,-0.04806 0.176733,-0.08062 0.113172,-0.03411 0.241846,-0.03411 0.193787,0 0.339514,0.05581 0.147278,0.05581 0.217041,0.151928 0.06976,0.09457 0.09612,0.254248 l -0.272851,0.03721 q -0.0186,-0.127124 -0.108521,-0.198437 -0.08837,-0.07131 -0.251147,-0.07131 -0.192236,0 -0.274402,0.06356 -0.08217,0.06356 -0.08217,0.148828 0,0.05426 0.03411,0.09767 0.03411,0.04496 0.10697,0.07441 0.04186,0.0155 0.246497,0.07131 0.296106,0.07906 0.412378,0.130225 0.117822,0.04961 0.184484,0.145728 0.06666,0.09612 0.06666,0.238745 0,0.139526 -0.08216,0.26355 -0.08062,0.122473 -0.234095,0.190686 -0.153479,0.06666 -0.347265,0.06666 -0.320911,0 -0.489893,-0.133325 -0.167432,-0.133325 -0.21394,-0.395325 z"
           style="font-family:Arial;-inkscape-font-specification:Arial"
           id="path2410" />
        <path
           d="m 14.488674,37.822976 0.288354,0.03566 q -0.06821,0.252697 -0.252697,0.392224 -0.184485,0.139526 -0.471289,0.139526 -0.361219,0 -0.573609,-0.221692 -0.21084,-0.223242 -0.21084,-0.624768 0,-0.415478 0.213941,-0.644922 0.21394,-0.229443 0.555005,-0.229443 0.330212,0 0.539502,0.224792 0.209289,0.224793 0.209289,0.63252 0,0.02481 -0.0015,0.07441 h -1.227832 q 0.0155,0.271301 0.153479,0.415479 0.137976,0.144177 0.344165,0.144177 0.153479,0 0.261999,-0.08061 0.108521,-0.08062 0.172083,-0.257349 z m -0.916223,-0.451135 h 0.919323 q -0.0186,-0.20774 -0.105419,-0.311609 -0.133326,-0.161231 -0.345716,-0.161231 -0.192236,0 -0.324011,0.128675 -0.130225,0.128674 -0.144177,0.344165 z"
           style="font-family:Arial;-inkscape-font-specification:Arial"
           id="path2412" />
        <path
           d="m 15.891689,37.708254 0.271301,-0.03721 q 0.01085,0.260449 0.09767,0.356568 0.08682,0.09612 0.240296,0.09612 0.113171,0 0.195337,-0.05116 0.08216,-0.05271 0.113171,-0.141077 0.03101,-0.08992 0.03101,-0.285253 v -1.565796 h 0.300757 v 1.548742 q 0,0.285254 -0.06976,0.441834 -0.06821,0.156579 -0.218592,0.238745 -0.148828,0.08217 -0.350366,0.08217 -0.299206,0 -0.458887,-0.172082 -0.158129,-0.172083 -0.151928,-0.511597 z"
           style="font-family:Arial;-inkscape-font-specification:Arial"
           id="path2414" />
        <path
           d="m 17.530349,37.622988 0.283704,-0.02481 q 0.02015,0.170533 0.09302,0.280603 0.07441,0.108521 0.229444,0.176734 0.155029,0.06666 0.348815,0.06666 0.172083,0 0.303858,-0.05116 0.131775,-0.05116 0.195337,-0.139527 0.06511,-0.08992 0.06511,-0.195336 0,-0.106971 -0.06201,-0.186036 -0.06201,-0.08061 -0.204638,-0.134875 -0.09147,-0.03566 -0.404627,-0.110071 -0.313159,-0.07596 -0.438733,-0.142627 -0.16278,-0.08527 -0.243396,-0.21084 -0.07906,-0.127124 -0.07906,-0.283703 0,-0.172083 0.09767,-0.320911 0.09767,-0.150378 0.285254,-0.227893 0.187585,-0.07752 0.417029,-0.07752 0.252697,0 0.444934,0.08217 0.193786,0.08062 0.297656,0.238745 0.103869,0.15813 0.111621,0.358118 l -0.288355,0.0217 q -0.02325,-0.215491 -0.158129,-0.325562 -0.133326,-0.110071 -0.395325,-0.110071 -0.272852,0 -0.398425,0.100769 -0.124024,0.09922 -0.124024,0.240296 0,0.122473 0.08837,0.201538 0.08682,0.07906 0.452685,0.162781 0.36742,0.08217 0.503846,0.144177 0.198437,0.09147 0.293005,0.232544 0.09457,0.139526 0.09457,0.322461 0,0.181384 -0.10387,0.342615 -0.103869,0.15968 -0.299206,0.249597 -0.193787,0.08837 -0.437183,0.08837 -0.308508,0 -0.517798,-0.08992 -0.207739,-0.08992 -0.327112,-0.269751 -0.117822,-0.181384 -0.124023,-0.409277 z"
           style="font-family:Arial;-inkscape-font-specification:Arial"
           id="path2416" />
        <path
           d="m 19.658901,37.246267 q 0,-0.565857 0.303857,-0.885217 0.303857,-0.320911 0.784448,-0.320911 0.31471,0 0.567408,0.150378 0.252697,0.150379 0.384472,0.42013 0.133325,0.268201 0.133325,0.609265 0,0.345715 -0.139526,0.618567 -0.139526,0.272851 -0.395325,0.413928 -0.255798,0.139526 -0.551904,0.139526 -0.320911,0 -0.573608,-0.155029 -0.252698,-0.155029 -0.382923,-0.42323 -0.130224,-0.268201 -0.130224,-0.567407 z m 0.310058,0.0047 q 0,0.410827 0.220142,0.648022 0.221692,0.235645 0.555005,0.235645 0.339514,0 0.558105,-0.238745 0.220142,-0.238745 0.220142,-0.677478 0,-0.277503 -0.09457,-0.483692 -0.09302,-0.207739 -0.274402,-0.32091 -0.179834,-0.114722 -0.404626,-0.114722 -0.319361,0 -0.550354,0.220142 -0.229444,0.218591 -0.229444,0.731738 z"
           style="font-family:Arial;-inkscape-font-specification:Arial"
           id="path2418" />
        <path
           d="m 22.216884,38.353176 v -2.272729 h 0.308509 l 1.193725,1.784387 v -1.784387 h 0.288355 v 2.272729 h -0.308509 l -1.193725,-1.785937 v 1.785937 z"
           style="font-family:Arial;-inkscape-font-specification:Arial"
           id="path2420" />
        <path
           d="M 25.063223,37.985757 V 37.362539 H 24.444656 V 37.10209 h 0.618567 v -0.618567 h 0.263549 v 0.618567 h 0.618567 v 0.260449 h -0.618567 v 0.623218 z"
           style="font-family:Arial;-inkscape-font-specification:Arial"
           id="path2422" />
        <path
           d="m 26.945277,38.353176 v -2.004529 h -0.748792 v -0.2682 h 1.801441 v 0.2682 h -0.751892 v 2.004529 z"
           style="font-family:Arial;-inkscape-font-specification:Arial"
           id="path2424" />
        <path
           d="m 28.157607,37.246267 q 0,-0.565857 0.303858,-0.885217 0.303857,-0.320911 0.784448,-0.320911 0.31471,0 0.567407,0.150378 0.252698,0.150379 0.384473,0.42013 0.133325,0.268201 0.133325,0.609265 0,0.345715 -0.139526,0.618567 -0.139527,0.272851 -0.395325,0.413928 -0.255798,0.139526 -0.551904,0.139526 -0.320911,0 -0.573609,-0.155029 -0.252697,-0.155029 -0.382922,-0.42323 -0.130225,-0.268201 -0.130225,-0.567407 z m 0.310059,0.0047 q 0,0.410827 0.220142,0.648022 0.221692,0.235645 0.555005,0.235645 0.339514,0 0.558105,-0.238745 0.220142,-0.238745 0.220142,-0.677478 0,-0.277503 -0.09457,-0.483692 -0.09302,-0.207739 -0.274402,-0.32091 -0.179834,-0.114722 -0.404627,-0.114722 -0.31936,0 -0.550354,0.220142 -0.229443,0.218591 -0.229443,0.731738 z"
           style="font-family:Arial;-inkscape-font-specification:Arial"
           id="path2426" />
        <path
           d="m 30.709389,38.353176 v -2.272729 h 0.452685 l 0.537952,1.609204 q 0.07441,0.224792 0.108521,0.336413 0.03876,-0.124023 0.120922,-0.364319 l 0.544153,-1.581298 h 0.404627 v 2.272729 h -0.289905 v -1.902209 l -0.660425,1.902209 h -0.271301 l -0.657324,-1.934765 v 1.934765 z"
           style="font-family:Arial;-inkscape-font-specification:Arial"
           id="path2428" />
        <path
           d="m 33.351089,38.353176 v -2.272729 h 0.300756 v 2.004528 h 1.119312 v 0.268201 z"
           style="font-family:Arial;-inkscape-font-specification:Arial"
           id="path2430" />
        <path
           d="m 35.893568,38.353176 v -2.272729 h 0.857312 q 0.226343,0 0.345715,0.0217 0.167432,0.02791 0.280603,0.10697 0.113172,0.07751 0.181384,0.218591 0.06976,0.141077 0.06976,0.310059 0,0.289905 -0.184485,0.491443 -0.184485,0.199988 -0.666626,0.199988 h -0.58291 v 0.923974 z m 0.300757,-1.192175 h 0.587561 q 0.291455,0 0.413928,-0.108521 0.122473,-0.10852 0.122473,-0.305407 0,-0.142627 -0.07286,-0.243396 -0.07131,-0.10232 -0.189135,-0.134876 -0.07597,-0.02015 -0.280603,-0.02015 h -0.58136 z"
           style="font-family:Arial;-inkscape-font-specification:Arial"
           id="path2432" />
        <path
           d="m 39.049965,38.150088 q -0.15503,0.131775 -0.299207,0.186035 -0.142627,0.05426 -0.306958,0.05426 -0.271301,0 -0.417029,-0.131775 -0.145727,-0.133325 -0.145727,-0.339514 0,-0.120923 0.05426,-0.220142 0.05581,-0.100769 0.144177,-0.16123 0.08992,-0.06046 0.201538,-0.09147 0.08217,-0.0217 0.248047,-0.04186 0.337964,-0.04031 0.497644,-0.09612 0.0016,-0.05736 0.0016,-0.07286 0,-0.170532 -0.07906,-0.240296 -0.106971,-0.09457 -0.31781,-0.09457 -0.196888,0 -0.291455,0.06976 -0.09302,0.06821 -0.137977,0.243396 l -0.272851,-0.03721 q 0.03721,-0.175183 0.122473,-0.282154 0.08527,-0.10852 0.246497,-0.165881 0.16123,-0.05891 0.37362,-0.05891 0.21084,0 0.342615,0.04961 0.131775,0.04961 0.193787,0.125574 0.06201,0.07441 0.08682,0.189136 0.01395,0.07131 0.01395,0.257348 v 0.372071 q 0,0.389123 0.01705,0.492993 0.0186,0.102319 0.07131,0.196887 h -0.291455 q -0.04341,-0.08682 -0.05581,-0.203088 z M 39.02671,37.52687 q -0.151928,0.06201 -0.455786,0.10542 -0.172082,0.02481 -0.243396,0.05581 -0.07131,0.03101 -0.110071,0.09147 -0.03876,0.05891 -0.03876,0.131775 0,0.111621 0.08372,0.186035 0.08527,0.07441 0.248047,0.07441 0.16123,0 0.286804,-0.06976 0.125574,-0.07131 0.184485,-0.193787 0.04496,-0.09457 0.04496,-0.279053 z"
           style="font-family:Arial;-inkscape-font-specification:Arial"
           id="path2434" />
        <path
           d="m 39.738296,38.353176 v -1.646411 h 0.251148 v 0.249597 q 0.09612,-0.175183 0.176733,-0.230993 0.08217,-0.05581 0.179834,-0.05581 0.141077,0 0.286804,0.08992 l -0.09612,0.258899 q -0.102319,-0.06046 -0.204638,-0.06046 -0.09147,0 -0.164332,0.05581 -0.07286,0.05426 -0.103869,0.151929 -0.04651,0.148828 -0.04651,0.325561 v 0.861963 z"
           style="font-family:Arial;-inkscape-font-specification:Arial"
           id="path2436" />
        <path
           d="m 40.687073,37.861733 0.275952,-0.04341 q 0.02325,0.165881 0.128674,0.254248 0.10697,0.08837 0.297656,0.08837 0.192237,0 0.285254,-0.07751 0.09302,-0.07906 0.09302,-0.184485 0,-0.09457 -0.08217,-0.148828 -0.05736,-0.03721 -0.285254,-0.09457 -0.306958,-0.07751 -0.42633,-0.133325 -0.117823,-0.05736 -0.179834,-0.156579 -0.06046,-0.10077 -0.06046,-0.221692 0,-0.110071 0.04961,-0.203089 0.05116,-0.09457 0.137976,-0.156579 0.06511,-0.04806 0.176733,-0.08062 0.113172,-0.03411 0.241846,-0.03411 0.193787,0 0.339514,0.05581 0.147278,0.05581 0.217041,0.151928 0.06976,0.09457 0.09612,0.254248 l -0.272851,0.03721 q -0.0186,-0.127124 -0.108521,-0.198437 -0.08837,-0.07131 -0.251147,-0.07131 -0.192237,0 -0.274402,0.06356 -0.08217,0.06356 -0.08217,0.148828 0,0.05426 0.03411,0.09767 0.03411,0.04496 0.10697,0.07441 0.04186,0.0155 0.246497,0.07131 0.296106,0.07906 0.412377,0.130225 0.117823,0.04961 0.184485,0.145728 0.06666,0.09612 0.06666,0.238745 0,0.139526 -0.08217,0.26355 -0.08062,0.122473 -0.234094,0.190686 -0.153479,0.06666 -0.347265,0.06666 -0.320911,0 -0.489893,-0.133325 -0.167432,-0.133325 -0.21394,-0.395325 z"
           style="font-family:Arial;-inkscape-font-specification:Arial"
           id="path2438" />
        <path
           d="m 43.513258,37.822976 0.288355,0.03566 q -0.06821,0.252697 -0.252698,0.392224 -0.184485,0.139526 -0.471289,0.139526 -0.361218,0 -0.573609,-0.221692 -0.210839,-0.223242 -0.210839,-0.624768 0,-0.415478 0.21394,-0.644922 0.21394,-0.229443 0.555005,-0.229443 0.330212,0 0.539502,0.224792 0.209289,0.224793 0.209289,0.63252 0,0.02481 -0.0015,0.07441 h -1.227832 q 0.0155,0.271301 0.153479,0.415479 0.137976,0.144177 0.344165,0.144177 0.153479,0 0.262,-0.08061 0.10852,-0.08062 0.172082,-0.257349 z m -0.916223,-0.451135 h 0.919324 q -0.0186,-0.20774 -0.10542,-0.311609 -0.133325,-0.161231 -0.345716,-0.161231 -0.192236,0 -0.324011,0.128675 -0.130224,0.128674 -0.144177,0.344165 z"
           style="font-family:Arial;-inkscape-font-specification:Arial"
           id="path2440" />
        <path
           d="m 44.14888,38.353176 v -1.646411 h 0.251147 v 0.249597 q 0.09612,-0.175183 0.176734,-0.230993 0.08217,-0.05581 0.179834,-0.05581 0.141076,0 0.286804,0.08992 l -0.09612,0.258899 q -0.10232,-0.06046 -0.204639,-0.06046 -0.09147,0 -0.164331,0.05581 -0.07286,0.05426 -0.10387,0.151929 -0.04651,0.148828 -0.04651,0.325561 v 0.861963 z"
           style="font-family:Arial;-inkscape-font-specification:Arial"
           id="path2442" />
        <path
           d="m 46.158058,38.353176 v -1.42937 h -0.246497 v -0.217041 h 0.246497 v -0.175183 q 0,-0.165881 0.02946,-0.246497 0.04031,-0.10852 0.141076,-0.175183 0.10232,-0.06821 0.285254,-0.06821 0.117822,0 0.260449,0.02791 l -0.04186,0.243396 q -0.08682,-0.0155 -0.164331,-0.0155 -0.127124,0 -0.179834,0.05426 -0.05271,0.05426 -0.05271,0.203088 v 0.151929 h 0.320911 v 0.217041 H 46.43556 v 1.42937 z"
           style="font-family:Arial;-inkscape-font-specification:Arial"
           id="path2444" />
        <path
           d="m 46.869644,37.529971 q 0,-0.457337 0.254248,-0.677478 0.21239,-0.182935 0.517798,-0.182935 0.339514,0 0.555005,0.223242 0.21549,0.221692 0.21549,0.613916 0,0.31781 -0.09612,0.500745 -0.09457,0.181384 -0.277502,0.282153 -0.181384,0.100769 -0.396875,0.100769 -0.345715,0 -0.559656,-0.221692 -0.21239,-0.221692 -0.21239,-0.63872 z m 0.286804,0 q 0,0.316259 0.137976,0.474389 0.137976,0.15658 0.347266,0.15658 0.207739,0 0.345715,-0.15813 0.137976,-0.15813 0.137976,-0.482141 0,-0.305408 -0.139526,-0.461987 -0.137976,-0.15813 -0.344165,-0.15813 -0.20929,0 -0.347266,0.156579 -0.137976,0.15658 -0.137976,0.47284 z"
           style="font-family:Arial;-inkscape-font-specification:Arial"
           id="path2446" />
        <path
           d="m 48.736194,38.353176 v -1.646411 h 0.251148 v 0.249597 q 0.09612,-0.175183 0.176733,-0.230993 0.08217,-0.05581 0.179834,-0.05581 0.141077,0 0.286804,0.08992 l -0.09612,0.258899 q -0.102319,-0.06046 -0.204638,-0.06046 -0.09147,0 -0.164331,0.05581 -0.07286,0.05426 -0.10387,0.151929 -0.04651,0.148828 -0.04651,0.325561 v 0.861963 z"
           style="font-family:Arial;-inkscape-font-specification:Arial"
           id="path2448" />
        <path
           d="m 51.777868,37.461758 v -0.266651 l 0.962732,-0.0016 v 0.843359 q -0.221692,0.176734 -0.457337,0.266651 -0.235644,0.08837 -0.483691,0.08837 -0.334863,0 -0.609265,-0.142627 -0.272852,-0.144177 -0.412378,-0.415478 -0.139527,-0.271301 -0.139527,-0.606165 0,-0.331762 0.137976,-0.618566 0.139527,-0.288355 0.399976,-0.427881 0.260449,-0.139527 0.599963,-0.139527 0.246497,0 0.444934,0.08062 0.199988,0.07906 0.31316,0.221691 0.113171,0.142627 0.172082,0.372071 l -0.271301,0.07441 q -0.05116,-0.173633 -0.127124,-0.272852 -0.07596,-0.09922 -0.217041,-0.15813 -0.141077,-0.06046 -0.313159,-0.06046 -0.206189,0 -0.356568,0.06356 -0.150378,0.06201 -0.243396,0.164331 -0.09147,0.102319 -0.142627,0.224793 -0.08682,0.210839 -0.08682,0.457336 0,0.303857 0.10387,0.508496 0.10542,0.204639 0.305407,0.303857 0.199988,0.09922 0.424781,0.09922 0.195336,0 0.381372,-0.07441 0.186035,-0.07596 0.282153,-0.16123 v -0.42323 z"
           style="font-family:Arial;-inkscape-font-specification:Arial"
           id="path2450" />
        <path
           d="m 53.04446,37.529971 q 0,-0.457337 0.254248,-0.677478 0.21239,-0.182935 0.517798,-0.182935 0.339514,0 0.555005,0.223242 0.215491,0.221692 0.215491,0.613916 0,0.31781 -0.09612,0.500745 -0.09457,0.181384 -0.277502,0.282153 -0.181384,0.100769 -0.396875,0.100769 -0.345715,0 -0.559656,-0.221692 -0.21239,-0.221692 -0.212389,-0.63872 z m 0.286804,0 q 0,0.316259 0.137976,0.474389 0.137976,0.15658 0.347266,0.15658 0.207739,0 0.345715,-0.15813 0.137976,-0.15813 0.137976,-0.482141 0,-0.305408 -0.139526,-0.461987 -0.137976,-0.15813 -0.344165,-0.15813 -0.20929,0 -0.347266,0.156579 -0.137976,0.15658 -0.137976,0.47284 z"
           style="font-family:Arial;-inkscape-font-specification:Arial"
           id="path2452" />
      </g>
    </g>
  </g>
</svg>
