<?xml version="1.0" encoding="UTF-8" standalone="no"?>
<!-- Created with Inkscape (http://www.inkscape.org/) -->

<svg
   width="41.599998mm"
   height="27.5mm"
   viewBox="0 0 41.599999 27.5"
   version="1.1"
   id="svg5"
   inkscape:version="1.2.2 (b0a8486541, 2022-12-01)"
   sodipodi:docname="logo-go-jsonlp.svg"
   xmlns:inkscape="http://www.inkscape.org/namespaces/inkscape"
   xmlns:sodipodi="http://sodipodi.sourceforge.net/DTD/sodipodi-0.dtd"
   xmlns="http://www.w3.org/2000/svg"
   xmlns:svg="http://www.w3.org/2000/svg">
  <sodipodi:namedview
     id="namedview7"
     pagecolor="#ffffff"
     bordercolor="#999999"
     borderopacity="1"
     inkscape:showpageshadow="0"
     inkscape:pageopacity="0"
     inkscape:pagecheckerboard="0"
     inkscape:deskcolor="#d1d1d1"
     inkscape:document-units="mm"
     showgrid="false"
     inkscape:zoom="5.6568542"
     inkscape:cx="256.76815"
     inkscape:cy="93.338096"
     inkscape:window-width="3840"
     inkscape:window-height="2036"
     inkscape:window-x="-12"
     inkscape:window-y="-12"
     inkscape:window-maximized="1"
     inkscape:current-layer="layer1" />
  <defs
     id="defs2" />
  <g
     inkscape:label="Layer 1"
     inkscape:groupmode="layer"
     id="layer1"
     transform="translate(-3.584576,-5.94427)">
    <g
       id="g439"
       style="fill:#753030;fill-opacity:1"
       transform="translate(-27.648958,-104.57656)">
      <path
         d="m 34.912301,122.0482 c 0.9144,0.16933 1.566333,0.54187 1.9558,1.1176 0.4064,0.57573 0.6096,1.40547 0.6096,2.4892 v 2.8702 c 0,0.7112 0.1016,1.22767 0.3048,1.5494 0.2032,0.32173 0.575733,0.4826 1.1176,0.4826 h 2.3622 L 62.162,132.9956 H 38.620701 c -1.524,0 -2.582333,-0.3302 -3.175,-0.9906 -0.575733,-0.6604 -0.8636,-1.61713 -0.8636,-2.8702 v -3.7338 c 0,-0.7112 -0.110067,-1.2446 -0.3302,-1.6002 -0.220133,-0.37253 -0.592667,-0.5588 -1.1176,-0.5588 h -1.3716 v -2.4384 h 1.3716 c 0.524933,0 0.897467,-0.1778 1.1176,-0.5334 0.220133,-0.37253 0.3302,-0.90593 0.3302,-1.6002 v -3.7592 c 0,-1.25307 0.287867,-2.2098 0.8636,-2.8702 0.592667,-0.6604 1.651,-0.9906 3.175,-0.9906 h 2.6416 v 2.4384 h -2.3622 c -0.541867,0 -0.9144,0.16087 -1.1176,0.4826 -0.2032,0.3048 -0.3048,0.82127 -0.3048,1.5494 v 2.8702 c 0,1.08373 -0.2032,1.91347 -0.6096,2.4892 -0.389467,0.57573 -1.0414,0.9652 -1.9558,1.1684 z"
         style="font-weight:bold;font-size:25.4px;line-height:1.25;font-family:'Ubuntu Mono';-inkscape-font-specification:'Ubuntu Mono Bold';letter-spacing:0px;word-spacing:0px;fill:#753030;fill-opacity:1;stroke-width:0.264583"
         id="path273"
         sodipodi:nodetypes="ccssssccscsscsccscsscsccscsscc" />
      <path
         d="m 50.812699,122.80842 q 0,1.28429 -0.3048,2.42588 -0.2794,1.14159 -0.9652,1.99779 -0.6604,0.85619 -1.7272,1.36991 -1.0668,0.48518 -2.5908,0.48518 -1.6002,0 -2.667,-0.45664 -1.0668,-0.45663 -1.8034,-1.11305 l 1.1938,-2.79691 q 0.635,0.45664 1.397,0.88474 0.7874,0.4281 1.6002,0.4281 1.2192,0 1.9558,-0.7135 0.762,-0.74203 0.762,-2.71128 v -8.64757 h -5.2578 V 111.05 h 8.4074 z"
         style="font-weight:bold;font-size:25.4px;line-height:1.25;font-family:'Ubuntu Mono';-inkscape-font-specification:'Ubuntu Mono Bold';letter-spacing:0px;word-spacing:0px;fill:#753030;fill-opacity:1;stroke-width:0.28046"
         id="path275" />
      <path
         d="m 64.452499,111.05 v 2.91779 h -4.1402 v 14.78919 h -3.1496 v -14.78919 h -4.1402 V 111.05 Z"
         style="font-weight:bold;font-size:25.4px;line-height:1.25;font-family:'Ubuntu Mono';-inkscape-font-specification:'Ubuntu Mono Bold';letter-spacing:0px;word-spacing:0px;fill:#753030;fill-opacity:1;stroke-width:0.280784"
         id="path277" />
      <path
         d="M 72.271465,132.9956 H 65.210263 L 44.01,130.5572 h 25.264263 v -17.0688 h -4.064 V 111.05 h 7.061202 z"
         style="font-weight:bold;font-size:25.4px;line-height:1.25;font-family:'Ubuntu Mono';-inkscape-font-specification:'Ubuntu Mono Bold';letter-spacing:0px;word-spacing:0px;fill:#753030;fill-opacity:1;stroke-width:0.264583"
         id="path279"
         sodipodi:nodetypes="ccccccccc" />
    </g>
    <g
       aria-label="Loose JSON+TOML Parsers for Go"
       id="text873"
       style="font-size:2.82222px;line-height:1.25;font-family:'Courier New';-inkscape-font-specification:'Courier New';letter-spacing:0px;word-spacing:0px;fill:#753030;stroke-width:0.264583"
       transform="matrix(0.82310179,0,0,0.86575711,0.76315518,1.7962402)">
      <path
         d="m 8.9362226,35.644596 v -2.020202 h 0.2673392 v 1.781802 h 0.9949432 v 0.2384 z"
         style="font-family:Arial;-inkscape-font-specification:Arial"
         id="path979" />
      <path
         d="m 10.392808,34.912858 q 0,-0.406521 0.225998,-0.602202 0.188791,-0.162608 0.460264,-0.162608 0.301791,0 0.493338,0.198437 0.191547,0.197059 0.191547,0.545703 0,0.282497 -0.08544,0.445106 -0.08406,0.16123 -0.246669,0.250803 -0.16123,0.08957 -0.352778,0.08957 -0.307302,0 -0.497471,-0.197059 -0.188791,-0.19706 -0.188791,-0.567752 z m 0.254937,0 q 0,0.28112 0.122645,0.42168 0.122645,0.139181 0.30868,0.139181 0.184657,0 0.307303,-0.140559 0.122645,-0.14056 0.122645,-0.42857 0,-0.271473 -0.124023,-0.410655 -0.122646,-0.14056 -0.305925,-0.14056 -0.186035,0 -0.30868,0.139182 -0.122645,0.139182 -0.122645,0.420301 z"
         style="font-family:Arial;-inkscape-font-specification:Arial"
         id="path981" />
      <path
         d="m 11.962392,34.912858 q 0,-0.406521 0.225998,-0.602202 0.188791,-0.162608 0.460265,-0.162608 0.30179,0 0.493337,0.198437 0.191547,0.197059 0.191547,0.545703 0,0.282497 -0.08544,0.445106 -0.08406,0.16123 -0.246669,0.250803 -0.16123,0.08957 -0.352777,0.08957 -0.307303,0 -0.497472,-0.197059 -0.188791,-0.19706 -0.188791,-0.567752 z m 0.254937,0 q 0,0.28112 0.122645,0.42168 0.122646,0.139181 0.308681,0.139181 0.184657,0 0.307302,-0.140559 0.122645,-0.14056 0.122645,-0.42857 0,-0.271473 -0.124023,-0.410655 -0.122645,-0.14056 -0.305924,-0.14056 -0.186035,0 -0.308681,0.139182 -0.122645,0.139182 -0.122645,0.420301 z"
         style="font-family:Arial;-inkscape-font-specification:Arial"
         id="path983" />
      <path
         d="m 13.525086,35.207758 0.245291,-0.03858 q 0.02067,0.14745 0.114377,0.225998 0.09509,0.07855 0.264583,0.07855 0.170877,0 0.253559,-0.0689 0.08268,-0.07028 0.08268,-0.163987 0,-0.08406 -0.07304,-0.132291 -0.05099,-0.03307 -0.253558,-0.08406 -0.272852,-0.0689 -0.378961,-0.118511 -0.104731,-0.05099 -0.159852,-0.139182 -0.05374,-0.08957 -0.05374,-0.197059 0,-0.09784 0.0441,-0.180523 0.04547,-0.08406 0.122645,-0.139181 0.05788,-0.04272 0.157096,-0.07166 0.100597,-0.03032 0.214974,-0.03032 0.172255,0 0.30179,0.04961 0.130914,0.04961 0.192925,0.135048 0.06201,0.08406 0.08544,0.225998 l -0.242535,0.03307 q -0.01654,-0.112999 -0.09646,-0.176389 -0.07855,-0.06339 -0.223242,-0.06339 -0.170877,0 -0.243913,0.0565 -0.07304,0.0565 -0.07304,0.132291 0,0.04823 0.03032,0.08682 0.03032,0.03996 0.09508,0.06614 0.03721,0.01378 0.219108,0.06339 0.263205,0.07028 0.366558,0.115755 0.104731,0.0441 0.163987,0.129536 0.05926,0.08544 0.05926,0.212218 0,0.124023 -0.07304,0.234266 -0.07166,0.108865 -0.208083,0.169498 -0.136426,0.05926 -0.308681,0.05926 -0.285253,0 -0.435459,-0.118511 -0.148828,-0.118511 -0.19017,-0.3514 z"
         style="font-family:Arial;-inkscape-font-specification:Arial"
         id="path985" />
      <path
         d="m 16.037248,35.173307 0.256315,0.03169 q -0.06063,0.22462 -0.22462,0.348644 -0.163987,0.124023 -0.418923,0.124023 -0.321083,0 -0.509874,-0.197059 -0.187413,-0.198438 -0.187413,-0.555349 0,-0.369314 0.190169,-0.573264 0.190169,-0.203949 0.493337,-0.203949 0.293522,0 0.479557,0.199815 0.186035,0.199816 0.186035,0.562239 0,0.02205 -0.0014,0.06615 h -1.091405 q 0.01378,0.241157 0.136425,0.369314 0.122646,0.128157 0.305925,0.128157 0.136425,0 0.232888,-0.07166 0.09646,-0.07166 0.152962,-0.228755 z m -0.81442,-0.401008 h 0.817176 q -0.01654,-0.184657 -0.09371,-0.276986 -0.118512,-0.143316 -0.307303,-0.143316 -0.170876,0 -0.288009,0.114377 -0.115756,0.114377 -0.128158,0.305925 z"
         style="font-family:Arial;-inkscape-font-specification:Arial"
         id="path987" />
      <path
         d="m 17.284372,35.071333 0.241156,-0.03307 q 0.0096,0.23151 0.08682,0.316948 0.07717,0.08544 0.213596,0.08544 0.100596,0 0.173632,-0.04548 0.07304,-0.04685 0.100597,-0.125401 0.02756,-0.07993 0.02756,-0.253559 v -1.391817 h 0.267339 v 1.376659 q 0,0.253559 -0.06201,0.39274 -0.06063,0.139182 -0.194303,0.212218 -0.132292,0.07304 -0.311436,0.07304 -0.265962,0 -0.407899,-0.152962 -0.14056,-0.152962 -0.135048,-0.454752 z"
         style="font-family:Arial;-inkscape-font-specification:Arial"
         id="path989" />
      <path
         d="m 18.740957,34.995541 0.252181,-0.02205 q 0.01791,0.151584 0.08268,0.249425 0.06615,0.09646 0.20395,0.157096 0.137803,0.05926 0.310058,0.05926 0.152962,0 0.270095,-0.04548 0.117133,-0.04548 0.173633,-0.124023 0.05788,-0.07993 0.05788,-0.173633 0,-0.09508 -0.05512,-0.165364 -0.05512,-0.07166 -0.181901,-0.119889 -0.0813,-0.03169 -0.359668,-0.09784 -0.278363,-0.06752 -0.389984,-0.126779 -0.144694,-0.07579 -0.216352,-0.187413 -0.07028,-0.113 -0.07028,-0.252181 0,-0.152962 0.08682,-0.285254 0.08682,-0.13367 0.253558,-0.202571 0.166743,-0.0689 0.370692,-0.0689 0.22462,0 0.395497,0.07304 0.172255,0.07166 0.264583,0.212217 0.09233,0.14056 0.09922,0.318327 l -0.256315,0.01929 q -0.02067,-0.191547 -0.14056,-0.289387 -0.118511,-0.09784 -0.351399,-0.09784 -0.242535,0 -0.354156,0.08957 -0.110243,0.08819 -0.110243,0.213596 0,0.108865 0.07855,0.179145 0.07717,0.07028 0.402387,0.144694 0.326595,0.07304 0.447862,0.128157 0.176389,0.08131 0.260449,0.206706 0.08406,0.124023 0.08406,0.286632 0,0.16123 -0.09233,0.304546 -0.09233,0.141938 -0.265961,0.221864 -0.172255,0.07855 -0.388607,0.07855 -0.274229,0 -0.460264,-0.07993 -0.184657,-0.07993 -0.290766,-0.239779 -0.104731,-0.16123 -0.110243,-0.363801 z"
         style="font-family:Arial;-inkscape-font-specification:Arial"
         id="path991" />
      <path
         d="m 20.633002,34.660678 q 0,-0.502984 0.270095,-0.78686 0.270096,-0.285253 0.697287,-0.285253 0.279742,0 0.504362,0.133669 0.22462,0.13367 0.341753,0.373448 0.118511,0.238401 0.118511,0.541569 0,0.307302 -0.124023,0.549837 -0.124024,0.242534 -0.3514,0.367936 -0.227376,0.124023 -0.490581,0.124023 -0.285254,0 -0.509874,-0.137804 -0.22462,-0.137803 -0.340375,-0.376204 -0.115755,-0.2384 -0.115755,-0.504361 z m 0.275607,0.0041 q 0,0.36518 0.195682,0.576019 0.197059,0.209462 0.493337,0.209462 0.30179,0 0.496093,-0.212218 0.195682,-0.212218 0.195682,-0.602202 0,-0.246669 -0.08406,-0.429948 -0.08268,-0.184657 -0.243912,-0.285253 -0.159853,-0.101975 -0.359668,-0.101975 -0.283876,0 -0.489203,0.195681 -0.20395,0.194303 -0.20395,0.650434 z"
         style="font-family:Arial;-inkscape-font-specification:Arial"
         id="path993" />
      <path
         d="m 22.906763,35.644596 v -2.020202 h 0.27423 l 1.061088,1.58612 v -1.58612 h 0.256315 v 2.020202 h -0.274229 l -1.061089,-1.587499 v 1.587499 z"
         style="font-family:Arial;-inkscape-font-specification:Arial"
         id="path995" />
      <path
         d="M 25.436839,35.318001 V 34.76403 h -0.549837 v -0.23151 h 0.549837 v -0.549837 h 0.234266 v 0.549837 h 0.549837 v 0.23151 h -0.549837 v 0.553971 z"
         style="font-family:Arial;-inkscape-font-specification:Arial"
         id="path997" />
      <path
         d="m 27.109776,35.644596 v -1.781802 h -0.665592 v -0.2384 h 1.601279 v 0.2384 h -0.668348 v 1.781802 z"
         style="font-family:Arial;-inkscape-font-specification:Arial"
         id="path999" />
      <path
         d="m 28.187401,34.660678 q 0,-0.502984 0.270096,-0.78686 0.270095,-0.285253 0.697287,-0.285253 0.279741,0 0.504361,0.133669 0.22462,0.13367 0.341753,0.373448 0.118512,0.238401 0.118512,0.541569 0,0.307302 -0.124024,0.549837 -0.124023,0.242534 -0.351399,0.367936 -0.227376,0.124023 -0.490581,0.124023 -0.285254,0 -0.509874,-0.137804 -0.22462,-0.137803 -0.340375,-0.376204 -0.115756,-0.2384 -0.115756,-0.504361 z m 0.275608,0.0041 q 0,0.36518 0.195681,0.576019 0.197059,0.209462 0.493337,0.209462 0.301791,0 0.496094,-0.212218 0.195681,-0.212218 0.195681,-0.602202 0,-0.246669 -0.08406,-0.429948 -0.08268,-0.184657 -0.243913,-0.285253 -0.159852,-0.101975 -0.359667,-0.101975 -0.283876,0 -0.489204,0.195681 -0.203949,0.194303 -0.203949,0.650434 z"
         style="font-family:Arial;-inkscape-font-specification:Arial"
         id="path1001" />
      <path
         d="m 30.455651,35.644596 v -2.020202 h 0.402387 l 0.478179,1.430402 q 0.06614,0.199816 0.09646,0.299034 0.03445,-0.110243 0.107487,-0.323838 l 0.483691,-1.405598 h 0.359668 v 2.020202 H 32.12583 v -1.690851 l -0.587044,1.690851 h -0.241157 l -0.584287,-1.71979 v 1.71979 z"
         style="font-family:Arial;-inkscape-font-specification:Arial"
         id="path1003" />
      <path
         d="m 32.803826,35.644596 v -2.020202 h 0.267339 v 1.781802 h 0.994943 v 0.2384 z"
         style="font-family:Arial;-inkscape-font-specification:Arial"
         id="path1005" />
      <path
         d="m 35.063807,35.644596 v -2.020202 h 0.762054 q 0.201194,0 0.307303,0.01929 0.148828,0.02481 0.249424,0.09508 0.100597,0.0689 0.161231,0.194303 0.06201,0.125401 0.06201,0.275607 0,0.257693 -0.163986,0.436838 -0.163986,0.177767 -0.592556,0.177767 h -0.518142 v 0.82131 z m 0.267339,-1.05971 h 0.522276 q 0.259071,0 0.367936,-0.09646 0.108865,-0.09646 0.108865,-0.271473 0,-0.12678 -0.06477,-0.216352 -0.06339,-0.09095 -0.16812,-0.119889 -0.06752,-0.01792 -0.249425,-0.01792 h -0.516764 z"
         style="font-family:Arial;-inkscape-font-specification:Arial"
         id="path1007" />
      <path
         d="m 37.86949,35.464073 q -0.137803,0.117133 -0.265961,0.165365 -0.126779,0.04823 -0.272851,0.04823 -0.241157,0 -0.370692,-0.117133 -0.129536,-0.118511 -0.129536,-0.30179 0,-0.107487 0.04823,-0.195682 0.04961,-0.08957 0.128157,-0.143315 0.07993,-0.05374 0.179145,-0.08131 0.07304,-0.01929 0.220486,-0.03721 0.300412,-0.03583 0.44235,-0.08544 0.0014,-0.05099 0.0014,-0.06477 0,-0.151584 -0.07028,-0.213595 -0.09509,-0.08406 -0.282498,-0.08406 -0.17501,0 -0.259071,0.06201 -0.08268,0.06063 -0.122645,0.216352 l -0.242535,-0.03307 q 0.03307,-0.155718 0.108865,-0.250803 0.07579,-0.09646 0.219108,-0.14745 0.143316,-0.05236 0.332107,-0.05236 0.187413,0 0.304546,0.0441 0.117134,0.0441 0.172255,0.111621 0.05512,0.06615 0.07717,0.16812 0.0124,0.06339 0.0124,0.228755 v 0.330729 q 0,0.345887 0.01516,0.438215 0.01654,0.09095 0.06339,0.175011 H 37.9191 q -0.03858,-0.07717 -0.04961,-0.180523 z m -0.02067,-0.553971 q -0.135048,0.05512 -0.405143,0.09371 -0.152962,0.02205 -0.216352,0.04961 -0.06339,0.02756 -0.09784,0.0813 -0.03445,0.05237 -0.03445,0.117134 0,0.09922 0.07441,0.165364 0.07579,0.06615 0.220486,0.06615 0.143316,0 0.254937,-0.06201 0.111621,-0.06339 0.163987,-0.172255 0.03996,-0.08406 0.03996,-0.248046 z"
         style="font-family:Arial;-inkscape-font-specification:Arial"
         id="path1009" />
      <path
         d="m 38.481338,35.644596 v -1.463475 h 0.223242 v 0.221864 q 0.08544,-0.155719 0.157097,-0.205328 0.07304,-0.04961 0.159852,-0.04961 0.125401,0 0.254937,0.07993 l -0.08544,0.230132 q -0.09095,-0.05374 -0.181901,-0.05374 -0.08131,0 -0.146072,0.04961 -0.06477,0.04823 -0.09233,0.135048 -0.04134,0.132291 -0.04134,0.289387 v 0.766189 z"
         style="font-family:Arial;-inkscape-font-specification:Arial"
         id="path1011" />
      <path
         d="m 39.324699,35.207758 0.245291,-0.03858 q 0.02067,0.14745 0.114377,0.225998 0.09508,0.07855 0.264583,0.07855 0.170876,0 0.253559,-0.0689 0.08268,-0.07028 0.08268,-0.163987 0,-0.08406 -0.07304,-0.132291 -0.05099,-0.03307 -0.253559,-0.08406 -0.272851,-0.0689 -0.37896,-0.118511 -0.104731,-0.05099 -0.159852,-0.139182 -0.05374,-0.08957 -0.05374,-0.197059 0,-0.09784 0.0441,-0.180523 0.04548,-0.08406 0.122646,-0.139181 0.05788,-0.04272 0.157096,-0.07166 0.100597,-0.03032 0.214974,-0.03032 0.172254,0 0.30179,0.04961 0.130913,0.04961 0.192925,0.135048 0.06201,0.08406 0.08544,0.225998 l -0.242534,0.03307 q -0.01654,-0.112999 -0.09646,-0.176389 -0.07855,-0.06339 -0.223242,-0.06339 -0.170877,0 -0.243912,0.0565 -0.07304,0.0565 -0.07304,0.132291 0,0.04823 0.03032,0.08682 0.03032,0.03996 0.09508,0.06614 0.03721,0.01378 0.219108,0.06339 0.263205,0.07028 0.366558,0.115755 0.104731,0.0441 0.163986,0.129536 0.05926,0.08544 0.05926,0.212218 0,0.124023 -0.07304,0.234266 -0.07166,0.108865 -0.208084,0.169498 -0.136426,0.05926 -0.30868,0.05926 -0.285254,0 -0.43546,-0.118511 -0.148828,-0.118511 -0.190169,-0.3514 z"
         style="font-family:Arial;-inkscape-font-specification:Arial"
         id="path1013" />
      <path
         d="m 41.836861,35.173307 0.256314,0.03169 q -0.06063,0.22462 -0.22462,0.348644 -0.163986,0.124023 -0.418923,0.124023 -0.321083,0 -0.509874,-0.197059 -0.187413,-0.198438 -0.187413,-0.555349 0,-0.369314 0.190169,-0.573264 0.19017,-0.203949 0.493338,-0.203949 0.293522,0 0.479557,0.199815 0.186035,0.199816 0.186035,0.562239 0,0.02205 -0.0014,0.06615 H 41.00866 q 0.01378,0.241157 0.136426,0.369314 0.122645,0.128157 0.305924,0.128157 0.136426,0 0.232888,-0.07166 0.09646,-0.07166 0.152963,-0.228755 z m -0.81442,-0.401008 h 0.817176 q -0.01654,-0.184657 -0.09371,-0.276986 -0.118511,-0.143316 -0.307302,-0.143316 -0.170877,0 -0.28801,0.114377 -0.115755,0.114377 -0.128157,0.305925 z"
         style="font-family:Arial;-inkscape-font-specification:Arial"
         id="path1015" />
      <path
         d="m 42.401855,35.644596 v -1.463475 h 0.223242 v 0.221864 q 0.08544,-0.155719 0.157097,-0.205328 0.07304,-0.04961 0.159852,-0.04961 0.125401,0 0.254937,0.07993 l -0.08544,0.230132 q -0.09095,-0.05374 -0.181901,-0.05374 -0.08131,0 -0.146072,0.04961 -0.06477,0.04823 -0.09233,0.135048 -0.04134,0.132291 -0.04134,0.289387 v 0.766189 z"
         style="font-family:Arial;-inkscape-font-specification:Arial"
         id="path1017" />
      <path
         d="m 43.245212,35.207758 0.245291,-0.03858 q 0.02067,0.14745 0.114377,0.225998 0.09508,0.07855 0.264583,0.07855 0.170877,0 0.253559,-0.0689 0.08268,-0.07028 0.08268,-0.163987 0,-0.08406 -0.07304,-0.132291 -0.05099,-0.03307 -0.253559,-0.08406 -0.272851,-0.0689 -0.37896,-0.118511 -0.104731,-0.05099 -0.159852,-0.139182 -0.05374,-0.08957 -0.05374,-0.197059 0,-0.09784 0.0441,-0.180523 0.04548,-0.08406 0.122646,-0.139181 0.05788,-0.04272 0.157096,-0.07166 0.100597,-0.03032 0.214974,-0.03032 0.172254,0 0.30179,0.04961 0.130913,0.04961 0.192925,0.135048 0.06201,0.08406 0.08544,0.225998 l -0.242534,0.03307 q -0.01654,-0.112999 -0.09646,-0.176389 -0.07855,-0.06339 -0.223242,-0.06339 -0.170876,0 -0.243912,0.0565 -0.07304,0.0565 -0.07304,0.132291 0,0.04823 0.03032,0.08682 0.03032,0.03996 0.09508,0.06614 0.03721,0.01378 0.219108,0.06339 0.263205,0.07028 0.366558,0.115755 0.104731,0.0441 0.163986,0.129536 0.05926,0.08544 0.05926,0.212218 0,0.124023 -0.07304,0.234266 -0.07166,0.108865 -0.208084,0.169498 -0.136425,0.05926 -0.30868,0.05926 -0.285254,0 -0.43546,-0.118511 -0.148828,-0.118511 -0.190169,-0.3514 z"
         style="font-family:Arial;-inkscape-font-specification:Arial"
         id="path1019" />
      <path
         d="m 45.5989,35.644596 v -1.27055 H 45.379792 V 34.181121 H 45.5989 v -0.155719 q 0,-0.14745 0.02618,-0.219107 0.03583,-0.09646 0.125402,-0.155719 0.09095,-0.06063 0.253559,-0.06063 0.10473,0 0.23151,0.0248 l -0.03721,0.216352 q -0.07717,-0.01378 -0.146072,-0.01378 -0.112999,0 -0.159852,0.04823 -0.04685,0.04823 -0.04685,0.180523 v 0.135048 h 0.285254 v 0.192925 h -0.285254 v 1.27055 z"
         style="font-family:Arial;-inkscape-font-specification:Arial"
         id="path1021" />
      <path
         d="m 46.231419,34.912858 q 0,-0.406521 0.225998,-0.602202 0.188791,-0.162608 0.460265,-0.162608 0.30179,0 0.493337,0.198437 0.191547,0.197059 0.191547,0.545703 0,0.282497 -0.08544,0.445106 -0.08406,0.16123 -0.246669,0.250803 -0.16123,0.08957 -0.352777,0.08957 -0.307303,0 -0.497472,-0.197059 -0.188791,-0.19706 -0.188791,-0.567752 z m 0.254937,0 q 0,0.28112 0.122645,0.42168 0.122645,0.139181 0.308681,0.139181 0.184656,0 0.307302,-0.140559 0.122645,-0.14056 0.122645,-0.42857 0,-0.271473 -0.124023,-0.410655 -0.122646,-0.14056 -0.305924,-0.14056 -0.186036,0 -0.308681,0.139182 -0.122645,0.139182 -0.122645,0.420301 z"
         style="font-family:Arial;-inkscape-font-specification:Arial"
         id="path1023" />
      <path
         d="m 47.890575,35.644596 v -1.463475 h 0.223242 v 0.221864 q 0.08544,-0.155719 0.157097,-0.205328 0.07304,-0.04961 0.159852,-0.04961 0.125401,0 0.254937,0.07993 l -0.08544,0.230132 q -0.09095,-0.05374 -0.1819,-0.05374 -0.0813,0 -0.146072,0.04961 -0.06477,0.04823 -0.09233,0.135048 -0.04134,0.132291 -0.04134,0.289387 v 0.766189 z"
         style="font-family:Arial;-inkscape-font-specification:Arial"
         id="path1025" />
      <path
         d="m 50.594286,34.852225 v -0.237023 l 0.855761,-0.0014 v 0.749653 q -0.197059,0.157096 -0.406521,0.237022 -0.209461,0.07855 -0.429947,0.07855 -0.297656,0 -0.541569,-0.126779 -0.242534,-0.128158 -0.366558,-0.369314 -0.124023,-0.241157 -0.124023,-0.538813 0,-0.2949 0.122645,-0.549837 0.124024,-0.256315 0.355534,-0.380338 0.23151,-0.124023 0.5333,-0.124023 0.219108,0 0.395497,0.07166 0.177767,0.07028 0.278363,0.197059 0.100597,0.126779 0.152963,0.330729 l -0.241157,0.06615 q -0.04547,-0.154341 -0.112999,-0.242535 -0.06752,-0.08819 -0.192925,-0.14056 -0.125402,-0.05374 -0.278364,-0.05374 -0.183279,0 -0.316948,0.0565 -0.13367,0.05512 -0.216352,0.146072 -0.0813,0.09095 -0.12678,0.199816 -0.07717,0.187413 -0.07717,0.406521 0,0.270095 0.09233,0.451996 0.09371,0.181901 0.271473,0.270095 0.177767,0.08819 0.377582,0.08819 0.173633,0 0.338998,-0.06615 0.165364,-0.06752 0.250802,-0.143316 v -0.376204 z"
         style="font-family:Arial;-inkscape-font-specification:Arial"
         id="path1027" />
      <path
         d="m 51.720143,34.912858 q 0,-0.406521 0.225998,-0.602202 0.188791,-0.162608 0.460264,-0.162608 0.30179,0 0.493338,0.198437 0.191547,0.197059 0.191547,0.545703 0,0.282497 -0.08544,0.445106 -0.08406,0.16123 -0.246668,0.250803 -0.161231,0.08957 -0.352778,0.08957 -0.307302,0 -0.497471,-0.197059 -0.188791,-0.19706 -0.188791,-0.567752 z m 0.254937,0 q 0,0.28112 0.122645,0.42168 0.122645,0.139181 0.30868,0.139181 0.184657,0 0.307303,-0.140559 0.122645,-0.14056 0.122645,-0.42857 0,-0.271473 -0.124023,-0.410655 -0.122646,-0.14056 -0.305925,-0.14056 -0.186035,0 -0.30868,0.139182 -0.122645,0.139182 -0.122645,0.420301 z"
         style="font-family:Arial;-inkscape-font-specification:Arial"
         id="path1029" />
    </g>
  </g>
</svg>
